<?xml version="1.0" standalone="no"?>
<!DOCTYPE svg PUBLIC "-//W3C//DTD SVG 20010904//EN"
 "http://www.w3.org/TR/2001/REC-SVG-20010904/DTD/svg10.dtd">
<svg version="1.0" xmlns="http://www.w3.org/2000/svg"
 width="700.000000pt" height="700.000000pt" viewBox="0 0 700.000000 700.000000"
 preserveAspectRatio="xMidYMid meet">
<metadata>
Created by potrace 1.11, written by Peter Selinger 2001-2013
</metadata>
<g transform="translate(0.000000,700.000000) scale(0.100000,-0.100000)"
fill="#000000" stroke="none">
<path d="M3299 6996 c-2 -2 -42 -7 -89 -10 -47 -3 -95 -8 -107 -10 -12 -3 -46
-7 -76 -10 -45 -5 -120 -19 -287 -52 -113 -23 -350 -96 -512 -158 -154 -59
-497 -227 -506 -248 -2 -5 -8 -8 -14 -8 -5 0 -67 -38 -137 -84 -576 -381 -991
-877 -1284 -1536 -64 -144 -169 -463 -193 -585 -6 -30 -11 -55 -24 -109 -6
-27 -12 -61 -14 -75 -2 -14 -9 -60 -15 -101 -19 -123 -20 -131 -28 -220 -10
-107 -10 -459 0 -565 13 -156 18 -191 38 -300 12 -60 22 -122 24 -136 2 -14
13 -61 25 -105 11 -43 22 -86 24 -94 21 -85 95 -312 130 -395 9 -22 24 -58 34
-80 115 -272 326 -616 522 -850 86 -103 314 -335 409 -415 35 -30 69 -59 75
-65 58 -51 405 -295 420 -295 2 0 50 -26 107 -58 199 -111 445 -213 685 -285
115 -35 351 -89 439 -101 55 -7 114 -15 150 -21 187 -29 702 -24 877 8 14 3
62 11 105 17 448 66 988 283 1398 564 253 173 516 410 685 616 25 30 47 57 50
60 20 19 119 153 182 245 184 270 332 572 438 895 34 105 102 375 115 460 3
19 10 60 15 90 39 238 47 692 15 915 -2 17 -7 53 -11 80 -4 28 -8 61 -10 75
-5 53 -56 289 -86 395 -40 143 -128 383 -189 514 -27 57 -49 104 -49 106 0 1
-32 60 -72 131 -113 204 -253 406 -402 579 -72 85 -318 330 -401 401 -79 67
-285 218 -354 261 -61 37 -68 42 -147 91 -56 34 -299 155 -374 186 -25 10 -60
25 -78 33 -42 18 -315 111 -345 117 -12 2 -57 14 -99 26 -80 22 -86 23 -178
40 -30 6 -66 12 -80 15 -23 5 -59 11 -120 20 -14 2 -56 7 -95 11 -38 3 -74 8
-78 11 -9 5 -503 14 -508 9z m367 -19 c10 -3 42 -8 69 -12 266 -33 610 -204
913 -452 112 -92 326 -299 407 -393 26 -30 63 -73 84 -96 61 -68 272 -340 330
-424 304 -444 529 -825 740 -1255 177 -360 281 -619 391 -980 24 -78 70 -283
84 -370 2 -16 8 -50 11 -75 4 -25 10 -54 12 -65 10 -40 11 -451 2 -515 -26
-187 -71 -344 -141 -489 -36 -76 -120 -217 -137 -231 -3 -3 -24 -27 -46 -55
-141 -176 -356 -339 -615 -466 -176 -86 -459 -185 -640 -224 -8 -2 -44 -10
-80 -19 -36 -8 -78 -18 -95 -21 -94 -18 -195 -36 -230 -40 -22 -3 -65 -10 -95
-15 -30 -5 -86 -12 -125 -16 -38 -3 -79 -8 -90 -10 -11 -2 -53 -6 -95 -9 -41
-3 -95 -8 -120 -10 -268 -26 -1260 -27 -1397 -1 -10 2 -65 7 -122 11 -58 3
-107 8 -110 10 -4 1 -37 6 -76 9 -38 4 -81 9 -95 11 -44 6 -114 17 -135 21
-10 2 -37 6 -60 9 -22 3 -47 8 -55 10 -8 2 -31 6 -50 9 -19 3 -84 17 -145 31
-60 14 -121 28 -135 31 -38 7 -217 62 -290 89 -164 59 -208 78 -321 134 -417
209 -680 480 -824 851 -73 187 -102 356 -102 597 0 98 3 214 8 258 41 364 155
762 347 1205 53 121 155 341 174 375 6 11 34 63 61 115 85 162 191 355 231
419 12 20 25 43 29 51 8 17 30 53 37 60 3 3 14 21 24 40 11 19 35 60 54 90
141 222 176 275 189 288 7 7 13 17 13 22 0 5 6 15 13 22 7 7 21 27 31 43 43
68 318 429 346 455 3 3 34 39 69 80 94 110 345 355 452 442 175 141 429 297
569 348 19 7 50 19 68 27 56 25 255 71 333 79 41 3 75 8 77 9 6 5 238 -2 258
-8z"/>
</g>
</svg>
