<?xml version="1.0" standalone="no"?>
<!DOCTYPE svg PUBLIC "-//W3C//DTD SVG 20010904//EN"
 "http://www.w3.org/TR/2001/REC-SVG-20010904/DTD/svg10.dtd">
<svg version="1.0" xmlns="http://www.w3.org/2000/svg"
 width="700.000000pt" height="700.000000pt" viewBox="0 0 700.000000 700.000000"
 preserveAspectRatio="xMidYMid meet">
<metadata>
Created by potrace 1.11, written by Peter Selinger 2001-2013
</metadata>
<g transform="translate(0.000000,700.000000) scale(0.100000,-0.100000)"
fill="#000000" stroke="none">
<path d="M3298 6875 c-1 -1 -41 -6 -88 -9 -47 -3 -96 -8 -110 -10 -26 -4 -143
-18 -147 -18 -2 1 -17 -3 -34 -8 -18 -5 -51 -12 -73 -15 -23 -4 -95 -20 -161
-36 -379 -96 -729 -251 -1059 -471 -85 -57 -205 -144 -216 -158 -3 -3 -15 -13
-27 -21 -102 -70 -364 -331 -502 -499 -73 -90 -69 -85 -137 -180 -143 -202
-275 -439 -359 -645 -20 -49 -42 -103 -50 -120 -12 -26 -78 -238 -106 -335 -9
-34 -33 -139 -43 -190 -2 -14 -9 -47 -14 -75 -6 -27 -13 -72 -16 -100 -4 -27
-9 -66 -11 -85 -26 -192 -26 -646 -1 -800 3 -14 7 -46 10 -71 22 -173 88 -447
151 -628 253 -725 739 -1337 1400 -1761 180 -116 490 -264 710 -340 64 -22
283 -85 325 -94 153 -31 239 -46 287 -52 32 -3 67 -8 78 -10 95 -19 514 -25
700 -10 55 4 102 9 105 11 3 1 32 6 65 10 33 3 125 20 205 36 887 183 1657
712 2163 1487 37 56 67 105 67 107 0 3 12 24 27 48 78 123 214 430 276 622 56
172 117 436 132 570 4 33 9 69 11 80 18 91 25 509 12 675 -51 631 -291 1251
-681 1764 -348 457 -830 834 -1349 1056 -67 29 -136 58 -153 65 -39 17 -313
103 -345 109 -14 2 -52 11 -85 19 -33 9 -87 21 -120 26 -33 6 -69 13 -80 15
-11 2 -42 7 -70 10 -27 4 -68 9 -90 12 -22 3 -60 8 -85 10 -55 6 -507 14 -512
9z m737 -699 c44 -3 107 -7 140 -10 33 -3 96 -8 140 -11 44 -4 87 -8 95 -10 8
-2 42 -7 75 -10 33 -3 105 -13 160 -21 791 -121 1332 -369 1646 -754 171 -211
271 -455 308 -760 9 -73 7 -375 -3 -455 -47 -373 -160 -752 -362 -1209 -90
-205 -319 -645 -439 -844 -6 -9 -27 -46 -48 -82 -93 -159 -265 -423 -376 -575
-28 -38 -59 -81 -68 -95 -33 -46 -217 -275 -252 -315 -176 -195 -299 -315
-451 -441 -456 -374 -918 -515 -1385 -420 -151 31 -360 114 -510 204 -65 38
-245 163 -267 185 -7 7 -23 19 -34 28 -71 48 -255 227 -408 394 -224 245 -505
636 -730 1015 -31 52 -61 102 -66 110 -50 80 -241 434 -319 594 -172 351 -270
596 -362 906 -58 196 -96 380 -116 565 -10 89 -10 370 0 455 9 73 54 284 67
309 4 9 16 36 25 61 206 541 740 903 1585 1075 157 32 318 58 435 70 33 4 70
8 82 10 12 2 59 6 105 10 46 4 99 8 118 10 19 2 96 7 170 10 74 4 137 9 138
10 6 5 817 -3 907 -9z"/>
</g>
</svg>
