<?xml version="1.0" standalone="no"?>
<!DOCTYPE svg PUBLIC "-//W3C//DTD SVG 20010904//EN"
 "http://www.w3.org/TR/2001/REC-SVG-20010904/DTD/svg10.dtd">
<svg version="1.0" xmlns="http://www.w3.org/2000/svg"
 width="1059.000000pt" height="1059.000000pt" viewBox="0 0 1059.000000 1059.000000"
 preserveAspectRatio="xMidYMid meet">
<metadata>
Created by potrace 1.11, written by Peter Selinger 2001-2013
</metadata>
<g transform="translate(0.000000,1059.000000) scale(0.100000,-0.100000)"
fill="#000000" stroke="none">
<path d="M5009 10586 c-2 -2 -51 -7 -109 -10 -58 -4 -117 -8 -130 -10 -14 -3
-56 -7 -95 -11 -38 -3 -77 -8 -85 -10 -8 -2 -35 -6 -60 -9 -110 -14 -326 -56
-474 -91 -113 -27 -307 -81 -376 -105 -14 -5 -79 -27 -145 -50 -66 -23 -129
-45 -140 -50 -11 -5 -87 -37 -170 -72 -188 -79 -452 -212 -617 -311 -140 -84
-330 -207 -338 -217 -3 -4 -19 -16 -35 -26 -28 -18 -144 -102 -155 -114 -3 -3
-34 -27 -70 -55 -165 -126 -483 -424 -662 -621 -66 -73 -248 -296 -306 -375
-506 -693 -813 -1408 -967 -2254 -18 -99 -51 -362 -62 -495 -16 -187 -7 -884
12 -944 2 -6 6 -40 10 -76 3 -36 8 -81 11 -100 9 -64 44 -275 49 -300 9 -42
26 -123 31 -150 3 -14 12 -52 21 -85 8 -33 16 -67 18 -75 11 -48 72 -251 105
-350 124 -372 298 -746 499 -1073 36 -59 71 -115 76 -125 17 -28 69 -106 80
-119 5 -6 26 -35 45 -63 188 -274 460 -583 748 -848 535 -494 1176 -875 1869
-1113 124 -43 338 -106 386 -114 17 -3 34 -8 38 -10 9 -6 310 -71 364 -80 22
-3 51 -8 65 -10 71 -12 162 -25 215 -30 33 -4 71 -8 85 -11 124 -20 802 -27
995 -10 151 13 157 13 200 20 22 3 60 8 85 11 54 7 157 23 186 29 12 2 37 7
55 10 19 3 45 8 59 11 14 3 37 7 52 10 14 3 66 14 115 26 48 12 95 23 103 24
88 20 434 126 500 153 14 6 61 24 106 41 178 66 411 174 624 288 293 156 597
363 870 592 219 184 441 402 612 601 26 30 59 69 73 85 53 61 234 303 307 410
154 226 317 516 439 780 40 88 146 346 155 375 2 8 25 79 52 158 27 78 47 142
46 142 -2 0 1 11 6 25 24 62 104 396 125 516 11 66 15 88 29 179 8 52 18 120
22 150 3 30 8 66 9 80 27 199 27 932 0 1125 -2 17 -7 57 -10 90 -4 33 -8 67
-10 75 -2 8 -7 40 -10 70 -3 30 -8 62 -10 70 -2 8 -7 31 -10 50 -7 38 -54 276
-61 300 -2 8 -14 58 -28 110 -48 191 -131 442 -214 650 -78 197 -231 511 -315
648 -12 20 -28 48 -35 62 -13 26 -27 49 -127 203 -97 149 -304 429 -371 502
-11 11 -32 36 -48 55 -109 134 -389 417 -536 543 -521 446 -1058 763 -1675
991 -146 53 -461 150 -530 162 -16 3 -55 11 -85 19 -58 15 -181 40 -240 50
-19 3 -42 8 -50 10 -8 2 -37 6 -65 10 -27 3 -57 8 -65 10 -8 2 -42 7 -75 11
-33 3 -70 8 -83 9 -13 2 -55 6 -95 10 -40 4 -85 9 -102 12 -36 6 -700 14 -706
9z m561 -1500 c52 -4 129 -11 170 -17 177 -23 205 -28 305 -49 50 -10 102 -21
117 -24 32 -5 233 -62 308 -86 564 -185 1111 -522 1515 -934 154 -157 179
-185 339 -387 97 -121 259 -378 353 -559 98 -189 216 -481 264 -655 36 -128
78 -299 84 -345 4 -24 8 -47 10 -50 2 -4 7 -29 11 -56 3 -27 8 -58 10 -69 10
-55 19 -134 31 -280 14 -166 7 -581 -11 -682 -2 -10 -7 -49 -11 -88 -4 -38 -9
-79 -11 -90 -2 -10 -6 -37 -9 -60 -9 -62 -63 -298 -90 -394 -97 -345 -269
-727 -452 -1004 -27 -40 -50 -76 -52 -82 -5 -12 -190 -261 -220 -295 -12 -14
-43 -50 -68 -80 -142 -167 -437 -438 -628 -576 -391 -284 -823 -490 -1280
-609 -16 -5 -32 -9 -35 -10 -4 -1 -115 -27 -130 -30 -10 -2 -76 -15 -96 -19
-18 -4 -157 -25 -269 -41 -218 -32 -711 -24 -970 16 -38 6 -83 13 -100 15 -16
3 -37 7 -45 9 -8 2 -31 6 -50 9 -19 3 -50 10 -68 15 -18 5 -35 10 -37 10 -26
-1 -281 68 -322 87 -17 8 -36 14 -42 14 -16 0 -240 85 -321 122 -107 49 -231
110 -295 146 -93 53 -249 146 -255 152 -3 3 -41 30 -85 59 -198 135 -533 430
-680 601 -516 597 -819 1255 -923 2005 -11 77 -20 147 -20 155 0 8 -4 58 -8
110 -13 173 -7 510 11 650 1 14 6 50 10 80 10 87 20 149 41 255 13 65 41 185
69 295 53 211 217 605 348 835 240 425 606 852 966 1125 18 14 38 30 44 35 34
31 233 167 330 226 156 95 397 215 557 278 74 29 144 57 155 62 40 16 213 68
310 92 101 25 156 39 165 42 3 0 28 5 55 10 28 5 52 9 55 10 3 0 27 4 53 9 27
4 57 9 67 11 11 2 50 7 87 10 37 4 75 9 84 10 9 2 61 6 115 10 55 4 100 8 101
9 5 4 362 -3 443 -8z"/>
<path d="M5308 7146 c-1 -2 -55 -6 -118 -9 -63 -4 -124 -8 -135 -10 -11 -3
-42 -8 -70 -12 -27 -5 -52 -9 -55 -10 -3 0 -23 -4 -45 -9 -100 -19 -280 -82
-385 -134 -500 -247 -857 -679 -990 -1196 -34 -133 -38 -155 -55 -311 -11
-101 -6 -286 11 -420 9 -77 59 -282 89 -365 163 -454 511 -838 947 -1045 98
-46 258 -105 323 -120 191 -41 207 -44 328 -54 125 -10 328 -3 415 14 11 2 37
6 58 9 242 39 587 188 766 330 14 11 41 32 59 46 82 62 207 187 290 290 182
227 331 552 374 820 3 19 7 46 10 60 30 158 23 435 -15 630 -81 417 -313 803
-651 1083 -19 15 -81 60 -139 98 -268 179 -580 286 -890 305 -52 3 -100 7
-107 9 -6 2 -13 2 -15 1z"/>
</g>
</svg>
